<svg xmlns="http://www.w3.org/2000/svg" width="456" height="456" viewBox="0 0 456 456" fill="none">
<mask id="mask0_621_12696" style="mask-type:alpha" maskUnits="userSpaceOnUse" x="0" y="0" width="456" height="456">
<rect width="456" height="456" fill="url(#paint0_radial_621_12696)"/>
</mask>
<g mask="url(#mask0_621_12696)">
<path d="M136.512 19.0449C135.958 19.2877 135.406 19.5327 134.854 19.7799L221.508 217.071L102.129 37.8136C101.612 38.1566 101.097 38.5016 100.583 38.8487L220.874 219.75L64.2016 69.3518C63.7693 69.7982 63.3389 70.2463 62.9103 70.6962L217.983 219.562L39.4644 99.7016C39.115 100.214 38.7677 100.728 38.4224 101.244L218.799 222.351L16.2482 143.257C16.0177 143.833 15.7895 144.409 15.5637 144.987L216.043 223.271L4.88172 180.781C4.75387 181.389 4.62844 181.997 4.50544 182.607L217.856 225.538L0 229.99C0.00536304 230.612 0.0132112 231.232 0.0235351 231.853L215.671 227.446L3.6927 269.123C3.80399 269.733 3.91772 270.343 4.03386 270.953L218.21 228.843L17.8774 316.665C18.1192 317.237 18.3632 317.808 18.6095 318.378L216.924 231.443L36.3292 351.535C36.6658 352.056 37.0044 352.576 37.345 353.094L219.811 231.756L67.7352 390.18C68.177 390.616 68.6206 391.051 69.066 391.484L219.611 234.655L98.205 415.486C98.715 415.84 99.2265 416.191 99.7396 416.541L222.396 233.848L142.172 439.309C142.746 439.542 143.321 439.773 143.898 440.002L223.321 236.594L180.178 450.995C180.785 451.125 181.393 451.252 182.002 451.377L225.585 234.781L230.106 456H231.366C231.567 455.997 231.767 455.994 231.968 455.991L227.493 236.967L269.807 452.205C270.418 452.092 271.028 451.976 271.637 451.859L228.891 234.432L317.953 437.607C318.524 437.362 319.093 437.115 319.662 436.865L231.489 235.716L353.142 418.666C353.661 418.325 354.178 417.982 354.693 417.637L231.803 232.826L391.923 386.538C392.355 386.092 392.785 385.644 393.213 385.194L234.704 233.029L417.108 355.498C417.455 354.984 417.801 354.468 418.144 353.951L233.889 230.24L440.511 310.924C440.737 310.346 440.96 309.767 441.181 309.187L236.641 229.317L451.702 272.592C451.823 271.984 451.941 271.374 452.057 270.764L234.828 227.052L456 222.532C455.985 221.911 455.968 221.292 455.949 220.673L237.013 225.147L451.619 182.953C451.497 182.343 451.373 181.735 451.246 181.128L234.463 223.749L436.409 135.223C436.156 134.656 435.902 134.091 435.645 133.526L235.763 221.15L417.151 100.528C416.804 100.013 416.454 99.5 416.103 98.9883L232.873 220.834L384.895 62.4662C384.444 62.0392 383.992 61.614 383.538 61.1907L233.075 217.936L353.982 37.8507C353.465 37.5075 352.946 37.1663 352.426 36.8272L230.292 218.742L309.827 15.0486C309.247 14.8257 308.666 14.6052 308.084 14.3869L229.363 215.996L271.987 4.17141C271.378 4.05248 270.769 3.93597 270.158 3.8219L227.101 217.809L222.649 0C222.027 0.0143783 221.407 0.0312403 220.787 0.0505765L225.191 215.623L183.639 4.25558C183.03 4.37576 182.422 4.49837 181.814 4.6234L223.796 218.158L136.512 19.0449Z" fill="#FFB2D1"/>
</g>
<defs>
<radialGradient id="paint0_radial_621_12696" cx="0" cy="0" r="1" gradientUnits="userSpaceOnUse" gradientTransform="translate(228 228) rotate(90) scale(228)">
<stop stop-color="#D9D9D9"/>
<stop offset="1" stop-color="#D9D9D9" stop-opacity="0"/>
</radialGradient>
</defs>
</svg>