<svg width="800" height="463" viewBox="0 0 800 463" fill="none" xmlns="http://www.w3.org/2000/svg">
<g clip-path="url(#clip0_227_12471)">
<mask id="mask0_227_12471" style="mask-type:alpha" maskUnits="userSpaceOnUse" x="0" y="-70" width="800" height="533">
<rect x="0.5" y="-69.9004" width="799.105" height="531.959" fill="url(#paint0_radial_227_12471)"/>
</mask>
<g mask="url(#mask0_227_12471)">
<path d="M283.282 -69.9004H280.917L391.537 182.586L223.732 -69.9004H221.132L396.623 194.147C396.83 194.46 397.174 194.63 397.526 194.63C397.703 194.63 397.879 194.587 398.043 194.497C398.535 194.228 398.743 193.627 398.517 193.11L283.282 -69.9004Z" fill="#FFB2D1"/>
<path d="M391.058 -69.9004L396.184 181.128L346.86 -69.9004H344.653L396.462 193.757C396.564 194.271 397.013 194.63 397.524 194.63C397.564 194.63 397.601 194.63 397.642 194.624C398.199 194.565 398.62 194.085 398.607 193.525L393.225 -69.9004H391.058Z" fill="#FFB2D1"/>
<path d="M499.173 -69.9004L401.037 181.561L451.611 -69.9004H449.401L396.462 193.336C396.351 193.887 396.679 194.432 397.217 194.59C397.32 194.621 397.422 194.633 397.524 194.633C397.96 194.633 398.366 194.367 398.533 193.943L501.501 -69.9004H499.176H499.173Z" fill="#FFB2D1"/>
<path d="M648.781 -69.9004L405.355 183.819L575.612 -69.9004H573.002L396.623 192.946C396.311 193.413 396.407 194.042 396.843 194.392C397.041 194.553 397.283 194.63 397.521 194.63C397.806 194.63 398.091 194.519 398.304 194.296L651.784 -69.9004H648.781Z" fill="#FFB2D1"/>
<path d="M795.445 -69.9004H791.533L396.923 192.645C396.456 192.955 396.304 193.574 396.573 194.067C396.768 194.423 397.14 194.63 397.524 194.63C397.669 194.63 397.818 194.599 397.957 194.537L798.438 18.8897V16.5236L408.481 187.56L795.445 -69.9004Z" fill="#FFB2D1"/>
<path d="M798.439 184.267L409.936 192.211L798.439 115.787V113.579L397.313 192.484C396.762 192.592 396.385 193.103 396.447 193.664C396.505 194.215 396.97 194.63 397.524 194.63H397.545L798.442 186.432V184.264L798.439 184.267Z" fill="#FFB2D1"/>
<path d="M798.438 349.017L409.502 197.064L798.438 275.368V273.157L397.734 192.484C397.183 192.372 396.638 192.7 396.481 193.242C396.323 193.781 396.601 194.351 397.127 194.555L798.438 351.343V349.017Z" fill="#FFB2D1"/>
<path d="M674.308 460.892H677.438L407.249 201.385L793.561 460.892H797.445L398.128 192.648C397.66 192.336 397.032 192.432 396.682 192.868C396.329 193.305 396.369 193.94 396.775 194.33L674.308 460.892Z" fill="#FFB2D1"/>
<path d="M513.47 460.892H515.835L403.51 204.513L573.903 460.892H576.503L398.424 192.949C398.112 192.481 397.496 192.329 397.004 192.599C396.512 192.868 396.304 193.469 396.53 193.986L513.47 460.895V460.892Z" fill="#FFB2D1"/>
<path d="M404.067 460.893L398.861 205.969L448.952 460.893H451.159L398.585 193.34C398.477 192.788 397.966 192.411 397.406 192.472C396.849 192.531 396.428 193.011 396.44 193.572L401.9 460.893H404.067Z" fill="#FFB2D1"/>
<path d="M294.351 460.892L394.007 205.535L342.65 460.892H344.86L398.585 193.76C398.697 193.209 398.369 192.664 397.83 192.506C397.291 192.348 396.722 192.627 396.518 193.15L292.03 460.889H294.354L294.351 460.892Z" fill="#FFB2D1"/>
<path d="M142.528 460.892L389.693 203.277L216.824 460.892H219.433L398.425 194.154C398.737 193.686 398.641 193.057 398.205 192.704C397.768 192.351 397.134 192.391 396.744 192.797L139.522 460.892H142.524H142.528Z" fill="#FFB2D1"/>
<path d="M398.474 193.03C398.205 192.537 397.601 192.33 397.088 192.556L0.5 366.5V368.867L386.567 199.54L0.5 456.399V459.001L398.121 194.451C398.589 194.142 398.74 193.522 398.471 193.03H398.474Z" fill="#FFB2D1"/>
<path d="M398.601 193.432C398.542 192.875 398.078 192.46 397.502 192.466L0.5 200.583V202.751L385.109 194.888L0.5 270.544V272.752L397.731 194.612C398.282 194.504 398.66 193.993 398.598 193.432H398.601Z" fill="#FFB2D1"/>
<path d="M397.917 192.54L0.5 37.2734V39.5993L385.542 190.028L0.5 112.511V114.722L397.31 194.612C397.382 194.627 397.453 194.634 397.524 194.634C397.994 194.634 398.425 194.324 398.561 193.856C398.719 193.317 398.44 192.747 397.917 192.543V192.54Z" fill="#FFB2D1"/>
<path d="M124.795 -69.9004H121.665L387.799 185.711L7.28791 -69.9004H3.40332L396.92 194.448C397.106 194.571 397.317 194.63 397.524 194.63C397.843 194.63 398.155 194.491 398.369 194.225C398.722 193.788 398.682 193.153 398.276 192.763L124.795 -69.9004Z" fill="#FFB2D1"/>
</g>
</g>
<defs>
<radialGradient id="paint0_radial_227_12471" cx="0" cy="0" r="1" gradientUnits="userSpaceOnUse" gradientTransform="translate(400.053 196.079) rotate(90) scale(265.98 399.553)">
<stop stop-color="#D9D9D9"/>
<stop offset="1" stop-color="#D9D9D9" stop-opacity="0"/>
</radialGradient>
<clipPath id="clip0_227_12471">
<rect width="799.105" height="531.959" fill="white" transform="translate(0.5 -69.9004)"/>
</clipPath>
</defs>
</svg>
