<svg xmlns="http://www.w3.org/2000/svg" width="176" height="37" viewBox="0 0 176 37" fill="none">
  <mask id="path-1-inside-1_253_13810" fill="white">
    <path fill-rule="evenodd" clip-rule="evenodd" d="M10.5927 3.47646L0 36.9999L176 33.3008V0H175.999V32.8592L170.153 0.12289L10.5927 3.47646Z"/>
  </mask>
  <path fill-rule="evenodd" clip-rule="evenodd" d="M10.5927 3.47646L0 36.9999L176 33.3008V0H175.999V32.8592L170.153 0.12289L10.5927 3.47646Z" fill="#FFE600"/>
  <path d="M10.5927 3.47646L10.5507 1.4769L9.11755 1.50702L8.68565 2.87387L10.5927 3.47646ZM0 36.9999L-1.90706 36.3973L-2.74782 39.0581L0.0420258 38.9994L0 36.9999ZM176 33.3008L176.042 35.3003L178 35.2592V33.3008H176ZM176 0H178V-2H176V0ZM175.999 0V-2H173.999V0H175.999ZM175.999 32.8592L174.03 33.2108L177.999 32.8592H175.999ZM170.153 0.12289L172.122 -0.228718L171.821 -1.91261L170.111 -1.87667L170.153 0.12289ZM8.68565 2.87387L-1.90706 36.3973L1.90706 37.6025L12.4998 4.07905L8.68565 2.87387ZM0.0420258 38.9994L176.042 35.3003L175.958 31.3012L-0.0420258 35.0003L0.0420258 38.9994ZM178 33.3008V0H174V33.3008H178ZM176 -2H175.999V2H176V-2ZM173.999 0V32.8592H177.999V0H173.999ZM177.968 32.5076L172.122 -0.228718L168.184 0.474497L174.03 33.2108L177.968 32.5076ZM10.6347 5.47602L170.195 2.12245L170.111 -1.87667L10.5507 1.4769L10.6347 5.47602Z" fill="#F4B000" mask="url(#path-1-inside-1_253_13810)"/>
</svg>
