<svg width="42" height="42" viewBox="0 0 42 42" fill="none" xmlns="http://www.w3.org/2000/svg">
<path d="M32.4073 9.21217C30.1559 8.25682 27.7312 7.59104 25.2176 7.24522C25.1957 7.24528 25.174 7.25015 25.1542 7.25949C25.1343 7.26883 25.1168 7.2824 25.1028 7.29926C24.8221 7.85939 24.4974 8.58784 24.2834 9.14565C21.6194 8.83843 18.9243 8.93254 16.2882 9.42484C16.0353 8.86666 15.6611 8.17931 15.3254 7.64069C15.3076 7.60796 15.257 7.59305 15.207 7.59479C12.7237 8.11511 10.368 8.94783 8.17208 10.0585C8.15542 10.0591 8.13935 10.0763 8.12327 10.0935C3.82943 17.0309 2.81053 23.6706 3.65483 30.1784C3.656 30.2117 3.67382 30.2444 3.70771 30.2599C6.78266 32.3539 9.71077 33.5858 12.5899 34.3691C12.6404 34.384 12.6898 34.3656 12.7053 34.3317C13.3396 33.3923 13.9055 32.4053 14.3863 31.3713C14.4173 31.3035 14.3817 31.238 14.3145 31.2237C13.3523 30.8904 12.4377 30.4887 11.5374 30.0199C11.4696 29.9889 11.4662 29.8889 11.5144 29.8372C11.693 29.6976 11.8709 29.5413 12.0495 29.4016C12.0817 29.3671 12.1316 29.3654 12.1655 29.3809C17.9867 31.7959 24.1662 31.5801 29.7381 28.7672C29.7709 28.7494 29.8208 28.7477 29.8553 28.7798C30.0438 28.9233 30.2316 29.0502 30.4201 29.1937C30.4885 29.2413 30.492 29.3413 30.4098 29.3775C29.5617 29.9241 28.6602 30.3725 27.7235 30.7721C27.6575 30.7911 27.6438 30.8749 27.6622 30.9243C28.2306 31.9218 28.864 32.8669 29.5456 33.7603C29.5962 33.7752 29.6467 33.7901 29.6961 33.7717C32.5302 32.7889 35.3652 31.3558 38.2866 29.0524C38.3194 29.0346 38.3349 29.0007 38.3337 28.9674C38.8031 21.3964 36.6257 14.9184 32.4751 9.24315C32.4579 9.22708 32.4406 9.211 32.4073 9.21217ZM15.0588 25.7944C13.3432 25.8543 11.8554 24.322 11.7874 22.3731C11.7193 20.4243 13.0632 18.7931 14.8122 18.732C16.5777 18.6704 18.0327 20.2205 18.0836 22.1533C18.1516 24.1021 16.8077 25.7333 15.0588 25.7944ZM26.6684 25.389C24.9527 25.4489 23.465 23.9165 23.397 21.9677C23.3289 20.0189 24.6728 18.3877 26.4217 18.3266C28.1873 18.265 29.6423 19.8151 29.6931 21.7479C29.7612 23.6967 28.434 25.3273 26.6684 25.389Z" fill="black"/>
</svg>
