<svg width="24" height="24" viewBox="0 0 24 24" fill="none" xmlns="http://www.w3.org/2000/svg">
<rect width="24" height="24" rx="12" fill="#7289DA"/>
<path d="M16.8464 7.55369C15.9598 7.14036 14.9998 6.84036 13.9998 6.66702C13.991 6.66674 13.9823 6.66839 13.9742 6.67184C13.9661 6.6753 13.9589 6.68048 13.9531 6.68702C13.8331 6.90702 13.6931 7.19369 13.5998 7.41369C12.5391 7.25369 11.4604 7.25369 10.3998 7.41369C10.3064 7.18702 10.1664 6.90702 10.0398 6.68702C10.0331 6.67369 10.0131 6.66702 9.99309 6.66702C8.99309 6.84036 8.03975 7.14036 7.14642 7.55369C7.13975 7.55369 7.13309 7.56036 7.12642 7.56702C5.31309 10.2804 4.81309 12.9204 5.05975 15.5337C5.05975 15.547 5.06642 15.5604 5.07975 15.567C6.27975 16.447 7.43309 16.9804 8.57309 17.3337C8.59309 17.3404 8.61309 17.3337 8.61975 17.3204C8.88642 16.9537 9.12642 16.567 9.33309 16.1604C9.34642 16.1337 9.33309 16.107 9.30642 16.1004C8.92642 15.9537 8.56642 15.7804 8.21309 15.5804C8.18642 15.567 8.18642 15.527 8.20642 15.507C8.27975 15.4537 8.35309 15.3937 8.42642 15.3404C8.43975 15.327 8.45975 15.327 8.47309 15.3337C10.7664 16.3804 13.2398 16.3804 15.5064 15.3337C15.5198 15.327 15.5398 15.327 15.5531 15.3404C15.6264 15.4004 15.6998 15.4537 15.7731 15.5137C15.7998 15.5337 15.7998 15.5737 15.7664 15.587C15.4198 15.7937 15.0531 15.9604 14.6731 16.107C14.6464 16.1137 14.6398 16.147 14.6464 16.167C14.8598 16.5737 15.0998 16.9604 15.3598 17.327C15.3798 17.3337 15.3998 17.3404 15.4198 17.3337C16.5664 16.9804 17.7198 16.447 18.9198 15.567C18.9331 15.5604 18.9398 15.547 18.9398 15.5337C19.2331 12.5137 18.4531 9.89369 16.8731 7.56702C16.8664 7.56036 16.8598 7.55369 16.8464 7.55369ZM9.67975 13.9404C8.99309 13.9404 8.41975 13.307 8.41975 12.527C8.41975 11.747 8.97975 11.1137 9.67975 11.1137C10.3864 11.1137 10.9464 11.7537 10.9398 12.527C10.9398 13.307 10.3798 13.9404 9.67975 13.9404ZM14.3264 13.9404C13.6398 13.9404 13.0664 13.307 13.0664 12.527C13.0664 11.747 13.6264 11.1137 14.3264 11.1137C15.0331 11.1137 15.5931 11.7537 15.5864 12.527C15.5864 13.307 15.0331 13.9404 14.3264 13.9404Z" fill="white"/>
</svg>
