<svg width="42" height="42" viewBox="0 0 42 42" fill="none" xmlns="http://www.w3.org/2000/svg">
<path d="M37.3434 20.2049C37.0215 10.9874 29.2982 3.76719 20.1038 4.08826C10.9094 4.40934 3.7085 12.1507 4.03038 21.3682C4.31261 29.4501 10.2774 35.9794 17.927 37.2671L17.5305 25.9123L14.1992 26.0287L14.0243 21.0192L17.3556 20.9029L17.2098 16.7283C17.0973 13.5055 19.6208 10.7926 22.8355 10.6803L26.9996 10.5349L27.1746 15.5444L23.8433 15.6607C22.9272 15.6927 22.2039 16.4703 22.2359 17.3887L22.3525 20.7284L27.3495 20.5539L27.5244 25.5633L22.5275 25.7378L22.9327 37.3431C31.3151 36.2145 37.646 28.8713 37.3434 20.2049Z" fill="black"/>
</svg>
