<svg width="585" height="425" viewBox="0 0 585 425" fill="none" xmlns="http://www.w3.org/2000/svg">
<path d="M208.603 129.379L220.062 136.745L197.635 133.635L165.877 119.065L208.603 129.379Z" fill="#FFB2D1" fill-opacity="0.8"/>
<path d="M108.925 99.7262L120.384 107.093L97.9566 103.982L-123.022 0.634766L108.925 99.7262Z" fill="#FFB2D1" fill-opacity="0.8"/>
<path d="M217.278 81.4168L210.566 80.4346L220.879 89.2744L226.281 87.31L217.278 81.4168Z" fill="#FFB2D1" fill-opacity="0.8"/>
<path d="M197.937 15.2538L251.494 79.2836L181.567 10.3428L197.937 15.2538Z" fill="#FFB2D1" fill-opacity="0.8"/>
<path d="M574.173 343.749L506.851 294.395L591.243 344.6L574.173 343.749Z" fill="#FFB2D1" fill-opacity="0.8"/>
<path d="M86.1185 25.4181L146.989 64.8274L71.2723 25.54L86.1185 25.4181Z" fill="#FFB2D1" fill-opacity="0.8"/>
<path d="M385.201 17.3629L363.628 70.7741L393.549 14.0889L385.201 17.3629Z" fill="#FFB2D1" fill-opacity="0.8"/>
<path d="M503.613 12.2536L433.037 94.5111L451.372 80.5965L523.749 9.4707L503.613 12.2536Z" fill="#FFB2D1" fill-opacity="0.8"/>
<path d="M654.568 247.209L548.973 222.777L569.799 232.578L666.363 263.764L654.568 247.209Z" fill="#FFB2D1" fill-opacity="0.8"/>
<path d="M657.037 49.9086L466.348 159.459L687.876 45.351L657.037 49.9086Z" fill="#FFB2D1" fill-opacity="0.8"/>
<path d="M411.92 184.714L402.261 187.169L407.009 191.098L428.126 187.66L411.92 184.714Z" fill="#FFB2D1" fill-opacity="0.8"/>
<path d="M418.468 220.069L415.685 221.543L418.468 224.489L425.835 225.471L418.468 220.069Z" fill="#FFB2D1" fill-opacity="0.8"/>
<path d="M556.144 385.304L427.473 287.188L551.809 402.047L556.144 385.304Z" fill="#FFB2D1" fill-opacity="0.8"/>
<path d="M405.535 299.299L393.585 289.477L394.404 296.352L416.831 322.217L405.535 299.299Z" fill="#FFB2D1" fill-opacity="0.8"/>
<path d="M516.137 258.516L501.667 253.048L504.648 259.297L534.189 276.598L516.137 258.516Z" fill="#FFB2D1" fill-opacity="0.8"/>
<path d="M479.836 201.625L461.165 201.271L467.883 207.286L509.442 215.129L479.836 201.625Z" fill="#FFB2D1" fill-opacity="0.8"/>
<path d="M345.132 322.22L343.167 325.003L345.132 337.444L346.769 326.312L345.132 322.22Z" fill="#FFB2D1" fill-opacity="0.8"/>
<path d="M561.783 138.206L564.72 139.931L576.954 136.935L565.724 136.233L561.783 138.206Z" fill="#FFB2D1" fill-opacity="0.8"/>
<path d="M356.098 388.682V333.842L362.973 395.394L356.098 388.682Z" fill="#FFB2D1" fill-opacity="0.8"/>
<path d="M232.829 180.126L236.922 185.201H226.608L203.69 175.215L232.829 180.126Z" fill="#FFB2D1" fill-opacity="0.8"/>
<path d="M195.669 207.632H186.83L191.577 211.397H202.381L195.669 207.632Z" fill="#FFB2D1" fill-opacity="0.8"/>
<path d="M72.1566 388.317L186.831 319.762L59.5566 388.317H72.1566Z" fill="#FFB2D1" fill-opacity="0.8"/>
<path d="M-206.869 371.973L83.6948 283.164L-221.035 367.407L-206.869 371.973Z" fill="#FFB2D1" fill-opacity="0.8"/>
<path d="M71.2582 342.846L74.8596 338.427L95.8134 334.334L81.244 342.028L71.2582 342.846Z" fill="#FFB2D1" fill-opacity="0.8"/>
<path d="M120.366 333.024L116.274 332.533L111.854 337.772L118.566 335.316L120.366 333.024Z" fill="#FFB2D1" fill-opacity="0.8"/>
<path d="M271.791 392.281L307.314 304.21L285.869 399.484L271.791 392.281Z" fill="#FFB2D1" fill-opacity="0.8"/>
<path d="M335.144 75.1963L337.927 69.4668L340.382 75.1963L337.927 79.2889L335.144 75.1963Z" fill="#FFB2D1" fill-opacity="0.8"/>
<path d="M484.265 73.6148L490.548 72.5683L487.297 77.8868L482.538 78.2528L484.265 73.6148Z" fill="#FFB2D1" fill-opacity="0.8"/>
<path d="M561.893 252.346L566.109 257.121L559.876 257.18L557.045 253.338L561.893 252.346Z" fill="#FFB2D1" fill-opacity="0.8"/>
<path d="M261.055 270.452H257.56L250.012 276.603L259.238 274.506L261.055 270.452Z" fill="#FFB2D1" fill-opacity="0.8"/>
</svg>
