<svg width="673" height="333" viewBox="0 0 673 333" fill="none" xmlns="http://www.w3.org/2000/svg">
<path d="M305.651 98.9507L314.42 104.588L297.258 102.208L272.955 91.0586L305.651 98.9507Z" fill="#FFB2D1" fill-opacity="0.8"/>
<path d="M229.373 76.2592L238.142 81.8965L220.98 79.5163L51.876 0.429688L229.373 76.2592Z" fill="#FFB2D1" fill-opacity="0.8"/>
<path d="M93.2434 88.3032L101.073 90.9042L87.4478 92.4474L-57.7168 65L93.2434 88.3032Z" fill="#FFB2D1" fill-opacity="0.8"/>
<path d="M73.6229 205.18L79.1751 204.611L71.1981 209.346L-25.9785 232.72L73.6229 205.18Z" fill="#FFB2D1" fill-opacity="0.8"/>
<path d="M81.931 158.864L87.4927 159.332L78.7777 162.51L21.626 165.707L81.931 158.864Z" fill="#FFB2D1" fill-opacity="0.8"/>
<path d="M67.9655 49.4632L70.4697 51.0118L65.9442 50.8172L38.9805 39.4697L67.9655 49.4632Z" fill="#FFB2D1" fill-opacity="0.8"/>
<path d="M312.289 62.2477L307.153 61.4961L315.045 68.2608L319.179 66.7575L312.289 62.2477Z" fill="#FFB2D1" fill-opacity="0.8"/>
<path d="M297.489 11.6185L338.473 60.6172L284.962 7.86035L297.489 11.6185Z" fill="#FFB2D1" fill-opacity="0.8"/>
<path d="M585.403 262.997L533.885 225.229L598.466 263.648L585.403 262.997Z" fill="#FFB2D1" fill-opacity="0.8"/>
<path d="M211.92 19.396L258.5 49.5538L200.559 19.4893L211.92 19.396Z" fill="#FFB2D1" fill-opacity="0.8"/>
<path d="M440.792 13.231L424.283 54.1038L447.181 10.7256L440.792 13.231Z" fill="#FFB2D1" fill-opacity="0.8"/>
<path d="M531.406 9.31908L477.398 72.2665L491.429 61.6183L546.815 7.18945L531.406 9.31908Z" fill="#FFB2D1" fill-opacity="0.8"/>
<path d="M646.924 189.12L566.117 170.423L582.054 177.923L655.95 201.788L646.924 189.12Z" fill="#FFB2D1" fill-opacity="0.8"/>
<path d="M648.815 38.1367L502.89 121.97L672.415 34.649L648.815 38.1367Z" fill="#FFB2D1" fill-opacity="0.8"/>
<path d="M461.24 141.297L453.849 143.176L457.482 146.182L473.642 143.552L461.24 141.297Z" fill="#FFB2D1" fill-opacity="0.8"/>
<path d="M466.251 168.354L464.121 169.481L466.251 171.736L471.888 172.487L466.251 168.354Z" fill="#FFB2D1" fill-opacity="0.8"/>
<path d="M571.607 294.797L473.142 219.714L568.289 307.609L571.607 294.797Z" fill="#FFB2D1" fill-opacity="0.8"/>
<path d="M456.354 228.981L447.209 221.465L447.835 226.726L464.998 246.519L456.354 228.981Z" fill="#FFB2D1" fill-opacity="0.8"/>
<path d="M540.989 197.772L529.916 193.588L532.198 198.37L554.804 211.609L540.989 197.772Z" fill="#FFB2D1" fill-opacity="0.8"/>
<path d="M513.211 154.236L498.923 153.965L504.064 158.568L535.867 164.57L513.211 154.236Z" fill="#FFB2D1" fill-opacity="0.8"/>
<path d="M410.13 246.522L408.627 248.652L410.13 258.173L411.383 249.654L410.13 246.522Z" fill="#FFB2D1" fill-opacity="0.8"/>
<path d="M575.921 105.706L578.169 107.026L587.531 104.734L578.938 104.196L575.921 105.706Z" fill="#FFB2D1" fill-opacity="0.8"/>
<path d="M418.521 297.383V255.417L423.783 302.519L418.521 297.383Z" fill="#FFB2D1" fill-opacity="0.8"/>
<path d="M324.19 137.785L327.322 141.668H319.43L301.892 134.026L324.19 137.785Z" fill="#FFB2D1" fill-opacity="0.8"/>
<path d="M295.754 158.834H288.989L292.622 161.715H300.89L295.754 158.834Z" fill="#FFB2D1" fill-opacity="0.8"/>
<path d="M201.236 297.103L288.99 244.642L191.594 297.103H201.236Z" fill="#FFB2D1" fill-opacity="0.8"/>
<path d="M-12.2875 284.595L210.066 216.634L-23.1283 281.101L-12.2875 284.595Z" fill="#FFB2D1" fill-opacity="0.8"/>
<path d="M200.55 262.308L203.306 258.926L219.341 255.794L208.191 261.682L200.55 262.308Z" fill="#FFB2D1" fill-opacity="0.8"/>
<path d="M137.97 255.484L135.554 257.982L122.448 259.505L131.773 255.529L137.97 255.484Z" fill="#FFB2D1" fill-opacity="0.8"/>
<path d="M127.767 181.925L125.387 184.456L97.0443 187.994L121.571 182.057L127.767 181.925Z" fill="#FFB2D1" fill-opacity="0.8"/>
<path d="M238.129 254.792L234.998 254.416L231.615 258.425L236.751 256.546L238.129 254.792Z" fill="#FFB2D1" fill-opacity="0.8"/>
<path d="M354.006 300.137L381.19 232.74L364.779 305.649L354.006 300.137Z" fill="#FFB2D1" fill-opacity="0.8"/>
<path d="M402.486 57.489L404.616 53.1045L406.495 57.489L404.616 60.6208L402.486 57.489Z" fill="#FFB2D1" fill-opacity="0.8"/>
<path d="M516.602 56.2778L521.41 55.477L518.922 59.5469L515.281 59.827L516.602 56.2778Z" fill="#FFB2D1" fill-opacity="0.8"/>
<path d="M576.006 193.052L579.233 196.706L574.463 196.751L572.296 193.811L576.006 193.052Z" fill="#FFB2D1" fill-opacity="0.8"/>
<path d="M292.075 206.906H289.4L283.624 211.613L290.684 210.008L292.075 206.906Z" fill="#FFB2D1" fill-opacity="0.8"/>
<path d="M80.7829 129.892L83.9782 127.681L95.3615 129.709L85.8306 131.639L80.7829 129.892Z" fill="#FFB2D1" fill-opacity="0.8"/>
</svg>
