<svg width="42" height="42" viewBox="0 0 42 42" fill="none" xmlns="http://www.w3.org/2000/svg">
<path d="M20.1038 4.08826C10.9094 4.40934 3.70785 12.132 4.02892 21.3264C4.35 30.5208 12.0727 37.7224 21.2671 37.4013C30.4615 37.0802 37.663 29.3575 37.342 20.1631C37.0209 10.9687 29.2982 3.76719 20.1038 4.08826ZM28.2279 15.1448C28.07 17.7853 27.2107 24.2192 26.764 27.1866C26.5744 28.4439 26.1225 28.8766 25.6912 28.9417C24.7281 29.0588 23.9702 28.3681 23.0159 27.7844C21.5164 26.8695 20.6626 26.299 19.2142 25.4156C17.5274 24.3905 18.5725 23.7537 19.4882 22.7545C19.7293 22.4959 23.8578 18.466 23.9289 18.1133C23.9386 18.0599 23.9352 18.005 23.9188 17.9532C23.9025 17.9015 23.8738 17.8545 23.8352 17.8164C23.7323 17.7366 23.6002 17.7746 23.4842 17.7953C23.3355 17.8339 21.0576 19.4643 16.6174 22.6879C15.9669 23.1609 15.3754 23.4151 14.8418 23.417C14.2416 23.4213 13.0979 23.1444 12.2385 22.8909C11.1775 22.5944 10.355 22.4397 10.4012 21.8544C10.4241 21.5534 10.83 21.239 11.6018 20.8952C16.3917 18.61 19.5742 17.098 21.1666 16.3753C25.7296 14.2815 26.6674 13.9152 27.3003 13.8931C27.4336 13.8884 27.7512 13.9107 27.9569 14.0703C28.1281 14.1977 28.1845 14.3792 28.2058 14.5119C28.1927 14.6124 28.2364 14.911 28.2279 15.1448Z" fill="black"/>
</svg>
