<svg width="25" height="26" viewBox="0 0 25 26" fill="none" xmlns="http://www.w3.org/2000/svg">
<path fill-rule="evenodd" clip-rule="evenodd" d="M18.8309 17.638L17.431 19.2752L18.5256 20.9212C18.4649 21.5526 18.4132 22.1177 18.3697 22.5918C18.2037 24.3864 17.2186 24.9897 15.0781 24.7735C13.2525 24.5903 8.49805 24.0713 6.75776 23.8914C4.79344 23.6953 4.10279 22.6326 4.2625 20.9042C4.30168 20.4687 4.3499 19.9724 4.40209 19.4238L5.69832 18.0974L4.68815 16.3199C5.20164 11.0237 5.86011 4.24982 5.92393 3.5359C6.09838 1.6586 6.8951 0.875996 8.45112 1.03325C9.5614 1.14442 16.3604 1.77213 17.791 1.91616C19.6379 2.10155 20.1808 3.21482 20.0029 5.06196C19.9445 5.67673 19.3232 12.3452 18.8309 17.638ZM15.216 20.0757C16.4357 20.1977 16.624 18.2403 15.3749 18.1135C14.1258 17.9867 13.8788 19.9402 15.216 20.0757ZM11.5887 19.7059C12.8084 19.828 12.9967 17.8705 11.7476 17.7438C10.4985 17.617 10.2516 19.5732 11.5887 19.7059ZM8.01782 19.3539C9.23752 19.476 9.42577 17.5158 8.17674 17.3918C6.9277 17.2677 6.68065 19.2184 8.01782 19.3539Z" fill="white"/>
</svg>
