<svg width="42" height="42" viewBox="0 0 42 42" fill="none" xmlns="http://www.w3.org/2000/svg">
<path d="M37.7596 10.1428C36.4974 10.7706 35.1283 11.2019 33.7022 11.4352C35.1372 10.5012 36.221 9.0625 36.6952 7.36158C35.3418 8.24268 33.8298 8.87917 32.2257 9.26872C30.8598 7.88222 28.9819 7.11395 26.8832 7.18724C22.9689 7.32393 19.8825 10.6337 20.0204 14.5813C20.0401 15.1476 20.126 15.6949 20.2606 16.2072C14.3204 16.1144 8.94083 13.4506 5.27565 9.25926C4.69601 10.3301 4.38926 11.5749 4.43463 12.8741C4.5213 15.356 5.84732 17.511 7.8231 18.6928C6.64048 18.7341 5.52952 18.4393 4.54599 17.9734L4.54774 18.0233C4.66872 21.4879 7.2351 24.3 10.5225 24.8356C9.48433 25.1591 8.38534 25.2374 7.31182 25.0645C7.81381 26.4686 8.74321 27.6801 9.96937 28.5287C11.1955 29.3773 12.6568 29.8203 14.1478 29.7955C11.6918 31.8832 8.59877 33.0733 5.37687 33.1703C4.81054 33.1901 4.24306 33.1765 3.67441 33.1297C6.91011 35.0513 10.7158 36.1024 14.7467 35.9617C27.872 35.5033 34.7039 24.3581 34.3741 14.9139C34.363 14.5974 34.3525 14.2976 34.3248 13.9817C35.6891 12.9334 36.8441 11.6256 37.7596 10.1428Z" fill="black"/>
</svg>
