<svg xmlns="http://www.w3.org/2000/svg" width="141" height="29" viewBox="0 0 141 29" fill="none">
  <mask id="path-1-outside-1_682_27773" maskUnits="userSpaceOnUse" x="-2.26431" y="-41.2721" width="148.864" height="113.443" fill="black">
    <rect fill="white" x="-2.26431" y="-41.2721" width="148.864" height="113.443"/>
    <path fill-rule="evenodd" clip-rule="evenodd" d="M128.57 15.7528C82.4248 -4.85559 51.148 -2.03953 1.56169 17.5765L2.96875 21.6138C56.9008 1.61672 79.6638 -1.29564 127.282 19.2756L124.486 26.9226L139.28 20.7573L131.953 6.50244L128.57 15.7528Z"/>
  </mask>
  <path fill-rule="evenodd" clip-rule="evenodd" d="M128.57 15.7528C82.4248 -4.85559 51.148 -2.03953 1.56169 17.5765L2.96875 21.6138C56.9008 1.61672 79.6638 -1.29564 127.282 19.2756L124.486 26.9226L139.28 20.7573L131.953 6.50244L128.57 15.7528Z" fill="white"/>
  <path d="M128.57 15.7528L129.526 16.1022L129.151 17.1266L128.155 16.6818L128.57 15.7528ZM1.56169 17.5765L0.600879 17.9114L0.279592 16.9895L1.1874 16.6304L1.56169 17.5765ZM2.96875 21.6138L3.32249 22.5679L2.34947 22.9286L2.00794 21.9487L2.96875 21.6138ZM127.282 19.2756L127.686 18.3415L128.568 18.7226L128.238 19.625L127.282 19.2756ZM124.486 26.9226L124.877 27.8618L122.732 28.7557L123.53 26.5732L124.486 26.9226ZM139.28 20.7573L140.185 20.2921L140.689 21.2725L139.672 21.6965L139.28 20.7573ZM131.953 6.50244L130.997 6.15299L131.795 3.97041L132.858 6.03728L131.953 6.50244ZM128.155 16.6818C105.183 6.4225 85.981 2.02317 66.3861 2.59755C46.7734 3.17245 26.6857 8.73183 1.93598 18.5227L1.1874 16.6304C26.024 6.80516 46.3679 1.14848 66.3265 0.563437C86.303 -0.0221339 105.812 4.47468 128.985 14.8237L128.155 16.6818ZM2.5225 17.2417L3.92957 21.279L2.00794 21.9487L0.600879 17.9114L2.5225 17.2417ZM2.61502 20.6598C29.586 10.6594 48.8943 4.87742 67.4568 4.21473C86.052 3.55088 103.806 8.02535 127.686 18.3415L126.879 20.2096C103.14 9.95455 85.7033 5.59961 67.5294 6.24842C49.3228 6.8984 30.2835 12.5712 3.32249 22.5679L2.61502 20.6598ZM128.238 19.625L125.441 27.2721L123.53 26.5732L126.326 18.9261L128.238 19.625ZM124.094 25.9834L138.889 19.8181L139.672 21.6965L124.877 27.8618L124.094 25.9834ZM138.375 21.2224L131.048 6.9676L132.858 6.03728L140.185 20.2921L138.375 21.2224ZM132.909 6.85188L129.526 16.1022L127.615 15.4033L130.997 6.15299L132.909 6.85188Z" fill="#1C1C1C" fill-opacity="0.12" mask="url(#path-1-outside-1_682_27773)"/>
</svg>