<svg xmlns="http://www.w3.org/2000/svg" width="99" height="30" viewBox="0 0 99 30" fill="none">
  <mask id="path-1-outside-1_682_27776" maskUnits="userSpaceOnUse" x="-3.09439" y="-32.8177" width="108.28" height="91.3865" fill="black">
    <rect fill="white" x="-3.09439" y="-32.8177" width="108.28" height="91.3865"/>
    <path fill-rule="evenodd" clip-rule="evenodd" d="M84.8043 16.3185C53.4261 26.3818 9.80488 11.9742 1.50047 8.06629L3.57799 1.56629C5.10264 2.1942 6.8049 2.94037 8.67273 3.75912C24.3373 10.6256 51.6464 22.5963 83.4877 12.718L80.0002 3.18086L96.9433 10.2416L88.5518 26.5666L84.8043 16.3185Z"/>
  </mask>
  <path fill-rule="evenodd" clip-rule="evenodd" d="M84.8043 16.3185C53.4261 26.3818 9.80488 11.9742 1.50047 8.06629L3.57799 1.56629C5.10264 2.1942 6.8049 2.94037 8.67273 3.75912C24.3373 10.6256 51.6464 22.5963 83.4877 12.718L80.0002 3.18086L96.9433 10.2416L88.5518 26.5666L84.8043 16.3185Z" fill="white"/>
  <path d="M84.8043 16.3185L85.8987 15.9183L85.5143 14.8671L84.4485 15.2089L84.8043 16.3185ZM1.50047 8.06629L0.390523 7.71153L0.0792776 8.68533L1.0043 9.12064L1.50047 8.06629ZM3.57799 1.56629L4.02173 0.488826L2.85289 0.00745313L2.46805 1.21153L3.57799 1.56629ZM8.67273 3.75912L8.20492 4.82635L8.67273 3.75912ZM83.4877 12.718L83.833 13.831L85.0027 13.4681L84.5821 12.3179L83.4877 12.718ZM80.0002 3.18086L80.4484 2.10526L77.9918 1.0815L78.9058 3.58105L80.0002 3.18086ZM96.9433 10.2416L97.9796 10.7743L98.5568 9.65157L97.3915 9.16598L96.9433 10.2416ZM88.5518 26.5666L87.4575 26.9668L88.3715 29.4663L89.5882 27.0993L88.5518 26.5666ZM84.4485 15.2089C69.0281 20.1544 50.5016 19.1047 34.7045 16.2845C18.9172 13.466 6.03765 8.9136 1.99663 7.01194L1.0043 9.12064C5.26769 11.1269 18.3509 15.7323 34.2949 18.5787C50.2291 21.4234 69.2024 22.5459 85.1602 17.4281L84.4485 15.2089ZM2.61041 8.42105L4.68793 1.92105L2.46805 1.21153L0.390523 7.71153L2.61041 8.42105ZM3.13425 2.64375C4.64437 3.26568 6.33376 4.00614 8.20492 4.82635L9.14054 2.69189C7.27605 1.8746 5.5609 1.12272 4.02173 0.488826L3.13425 2.64375ZM8.20492 4.82635C23.862 11.6895 51.5387 23.8497 83.833 13.831L83.1425 11.6051C51.754 21.3428 24.8127 9.56164 9.14054 2.69189L8.20492 4.82635ZM84.5821 12.3179L81.0946 2.78067L78.9058 3.58105L82.3934 13.1182L84.5821 12.3179ZM79.552 4.25646L96.4951 11.3172L97.3915 9.16598L80.4484 2.10526L79.552 4.25646ZM95.9069 9.70886L87.5155 26.0339L89.5882 27.0993L97.9796 10.7743L95.9069 9.70886ZM89.6462 26.1664L85.8987 15.9183L83.71 16.7187L87.4575 26.9668L89.6462 26.1664Z" fill="#1C1C1C" fill-opacity="0.12" mask="url(#path-1-outside-1_682_27776)"/>
</svg>