<svg width="25" height="24" viewBox="0 0 25 24"  xmlns="http://www.w3.org/2000/svg">
<path d="M11.1326 13H13.1326V6.99995H11.1326V13ZM12.1326 16C12.416 16 12.6535 15.9041 12.8451 15.7125C13.0368 15.5208 13.1326 15.2833 13.1326 15C13.1326 14.7166 13.0368 14.4791 12.8451 14.2875C12.6535 14.0958 12.416 14 12.1326 14C11.8493 14 11.6118 14.0958 11.4201 14.2875C11.2285 14.4791 11.1326 14.7166 11.1326 15C11.1326 15.2833 11.2285 15.5208 11.4201 15.7125C11.6118 15.9041 11.8493 16 12.1326 16ZM12.1326 22.8L1.33264 12L12.1326 1.19995L22.9326 12L12.1326 22.8Z" />
</svg>
